<svg id="visual" viewBox="0 0 1980 1024" width="1980" height="1024" xmlns="http://www.w3.org/2000/svg" xmlns:xlink="http://www.w3.org/1999/xlink" version="1.1"><rect x="0" y="0" width="1980" height="1024" fill="#ffffff"></rect><defs><linearGradient id="grad1_0" x1="48.3%" y1="100%" x2="100%" y2="0%"><stop offset="11.328125%" stop-color="#3fa34d" stop-opacity="1"></stop><stop offset="88.671875%" stop-color="#3fa34d" stop-opacity="1"></stop></linearGradient></defs><defs><linearGradient id="grad1_1" x1="48.3%" y1="100%" x2="100%" y2="0%"><stop offset="11.328125%" stop-color="#3fa34d" stop-opacity="1"></stop><stop offset="88.671875%" stop-color="#ffffff" stop-opacity="1"></stop></linearGradient></defs><defs><linearGradient id="grad2_0" x1="0%" y1="100%" x2="51.7%" y2="0%"><stop offset="11.328125%" stop-color="#3fa34d" stop-opacity="1"></stop><stop offset="88.671875%" stop-color="#3fa34d" stop-opacity="1"></stop></linearGradient></defs><defs><linearGradient id="grad2_1" x1="0%" y1="100%" x2="51.7%" y2="0%"><stop offset="11.328125%" stop-color="#ffffff" stop-opacity="1"></stop><stop offset="88.671875%" stop-color="#3fa34d" stop-opacity="1"></stop></linearGradient></defs><g transform="translate(1980, 1024)"><path d="M-665.6 0C-600.3 -63.1 -534.9 -126.2 -512.8 -212.4C-490.6 -298.6 -511.6 -407.8 -470.7 -470.7C-429.7 -533.5 -326.8 -549.9 -238 -574.7C-149.3 -599.4 -74.6 -632.5 0 -665.6L0 0Z" fill="#a4d2a4"></path><path d="M-332.8 0C-300.1 -31.6 -267.5 -63.1 -256.4 -106.2C-245.3 -149.3 -255.8 -203.9 -235.3 -235.3C-214.9 -266.7 -163.4 -274.9 -119 -287.3C-74.6 -299.7 -37.3 -316.3 0 -332.8L0 0Z" fill="#3fa34d"></path></g><g transform="translate(0, 0)"><path d="M665.6 0C557.6 55.2 449.5 110.3 404.7 167.6C359.8 224.9 378.2 284.3 368.4 368.4C358.6 452.5 320.8 561.3 254.7 614.9C188.6 668.6 94.3 667.1 0 665.6L0 0Z" fill="#a4d2a4"></path><path d="M332.8 0C278.8 27.6 224.8 55.2 202.3 83.8C179.9 112.5 189.1 142.2 184.2 184.2C179.3 226.2 160.4 280.6 127.4 307.5C94.3 334.3 47.2 333.5 0 332.8L0 0Z" fill="#3fa34d"></path></g></svg>